<?xml version="1.0" encoding="UTF-8"?>
<svg id="Layer_1" xmlns="http://www.w3.org/2000/svg" viewBox="0 0 256 179.2">
  <defs>
    <style>
      .cls-1 {
        fill: #a785ff;
      }
    </style>
  </defs>
  <path class="cls-1" d="M153.6,25.6v89.6V25.6v89.6H25.6V25.6h128ZM25.6,0c-7.2.27-13.2,2.8-18,7.6S.27,18.4,0,25.6v89.6c.27,7.2,2.8,13.2,7.6,18,4.8,4.8,10.8,7.33,18,7.6h46.8l-4,12.8h-30c-3.73,0-6.8,1.2-9.2,3.6-2.4,2.4-3.6,5.47-3.6,9.2s1.2,6.8,3.6,9.2,5.47,3.6,9.2,3.6h102.4c3.73,0,6.8-1.2,9.2-3.6,2.4-2.4,3.6-5.47,3.6-9.2s-1.2-6.8-3.6-9.2-5.47-3.6-9.2-3.6h-30l-4-12.8h46.8c7.2-.27,13.2-2.8,18-7.6s7.33-10.8,7.6-18V25.6c-.27-7.2-2.8-13.2-7.6-18-4.8-4.8-10.8-7.33-18-7.6H25.6ZM211.2,0c-5.33.27-9.87,2.13-13.6,5.6-3.47,3.73-5.33,8.27-5.6,13.6v140.8c.27,5.33,2.13,9.87,5.6,13.6,3.73,3.47,8.27,5.33,13.6,5.6h25.6c5.33-.27,9.87-2.13,13.6-5.6,3.47-3.73,5.33-8.27,5.6-13.6V19.2c-.27-5.33-2.13-9.87-5.6-13.6-3.73-3.47-8.27-5.33-13.6-5.6h-25.6ZM217.6,25.6h12.8-12.8,12.8c4,.27,6.13,2.4,6.4,6.4-.27,4-2.4,6.13-6.4,6.4h-12.8c-4-.27-6.13-2.4-6.4-6.4.27-4,2.4-6.13,6.4-6.4ZM211.2,57.6c.27-4,2.4-6.13,6.4-6.4h12.8c4,.27,6.13,2.4,6.4,6.4-.27,4-2.4,6.13-6.4,6.4h-12.8c-4-.27-6.13-2.4-6.4-6.4ZM224,121.6c3.73,0,6.8,1.2,9.2,3.6s3.6,5.47,3.6,9.2-1.2,6.8-3.6,9.2c-2.4,2.4-5.47,3.6-9.2,3.6s-6.8-1.2-9.2-3.6c-2.4-2.4-3.6-5.47-3.6-9.2s1.2-6.8,3.6-9.2,5.47-3.6,9.2-3.6Z"/>
</svg>