<?xml version="1.0" encoding="UTF-8"?>
<svg id="Layer_1" xmlns="http://www.w3.org/2000/svg" viewBox="0 0 256 256">
  <defs>
    <style>
      .cls-1 {
        fill: #a785ff;
      }
    </style>
  </defs>
  <path class="cls-1" d="M104,0c-13.25,0-24,10.75-24,24v48c0,4.42-3.58,8-8,8H24c-13.25,0-24,10.75-24,24v48c0,13.25,10.75,24,24,24h48c4.42,0,8,3.58,8,8v48c0,13.25,10.75,24,24,24h48c13.25,0,24-10.75,24-24h0v-48c0-4.42,3.58-8,8-8h48c13.25,0,24-10.75,24-24v-48c0-13.25-10.75-24-24-24h-48c-4.42,0-8-3.58-8-8V24c0-13.25-10.75-24-24-24h-48ZM124.61,37.44c1.17-1.87,3.64-2.44,5.51-1.27.52.32.95.76,1.27,1.27l12.78,20.45c1.17,1.88.59,4.34-1.28,5.51-.63.39-1.36.6-2.11.6h-25.57c-2.21,0-4-1.8-4-4,0-.74.21-1.47.6-2.11l12.78-20.45ZM124.61,218.56l-12.78-20.43c-1.18-1.87-.61-4.34,1.26-5.51.64-.4,1.38-.61,2.13-.61h25.58c2.21,0,4,1.79,4.01,3.99,0,.75-.21,1.49-.61,2.13l-12.78,20.45c-1.17,1.87-3.64,2.44-5.51,1.27-.52-.32-.95-.76-1.27-1.27l-.02-.02ZM57.89,144.16l-20.46-12.77c-1.87-1.17-2.44-3.64-1.27-5.51.32-.52.76-.95,1.27-1.27l20.46-12.78c1.88-1.17,4.34-.59,5.51,1.28.39.63.6,1.36.6,2.11v25.58c0,2.21-1.8,4-4,4-.74,0-1.47-.21-2.11-.6v-.03ZM218.58,131.39l-20.45,12.78c-1.87,1.18-4.34.61-5.51-1.26-.4-.64-.61-1.38-.61-2.13v-25.58c0-2.21,1.79-4,3.99-4.01.75,0,1.49.21,2.13.61l20.45,12.78c1.87,1.17,2.44,3.64,1.27,5.51-.32.52-.76.95-1.27,1.27v.02Z"/>
</svg>