<?xml version="1.0" encoding="UTF-8"?>
<svg id="Layer_1" xmlns="http://www.w3.org/2000/svg" viewBox="0 0 256 153.6">
  <defs>
    <style>
      .cls-1 {
        fill: #a785ff;
      }
    </style>
  </defs>
  <path class="cls-1" d="M76.8,0c-21.87.53-40,8-54.4,22.4C8,36.8.53,54.93,0,76.8c.53,21.87,8,40,22.4,54.4,14.4,14.4,32.53,21.87,54.4,22.4h102.4c21.87-.53,40-8,54.4-22.4,14.4-14.4,21.87-32.53,22.4-54.4-.53-21.87-8-40-22.4-54.4C219.2,8,201.07.53,179.2,0h-102.4ZM198.4,41.6c6.13.27,10.8,2.93,14,8,2.67,5.33,2.67,10.67,0,16-3.2,5.07-7.87,7.73-14,8-6.13-.27-10.8-2.93-14-8-2.67-5.33-2.67-10.67,0-16,3.2-5.07,7.87-7.73,14-8ZM156.8,96c.27-6.13,2.93-10.8,8-14,5.33-2.67,10.67-2.67,16,0,5.07,3.2,7.73,7.87,8,14-.27,6.13-2.93,10.8-8,14-5.33,2.67-10.67,2.67-16,0-5.07-3.2-7.73-7.87-8-14ZM67.2,54.4c.53-5.87,3.73-9.07,9.6-9.6,5.87.53,9.07,3.73,9.6,9.6v12.8h12.8c5.87.53,9.07,3.73,9.6,9.6-.53,5.87-3.73,9.07-9.6,9.6h-12.8v12.8c-.53,5.87-3.73,9.07-9.6,9.6-5.87-.53-9.07-3.73-9.6-9.6v-12.8h-12.8c-5.87-.53-9.07-3.73-9.6-9.6.53-5.87,3.73-9.07,9.6-9.6h12.8v-12.8Z"/>
</svg>