<?xml version="1.0" encoding="UTF-8"?>
<svg id="Layer_1" xmlns="http://www.w3.org/2000/svg" viewBox="0 0 176 256">
  <defs>
    <style>
      .cls-1 {
        fill: #a785ff;
      }
    </style>
  </defs>
  <path class="cls-1" d="M0,32C.33,23,3.5,15.5,9.5,9.5S23,.33,32,0h112c9,.33,16.5,3.5,22.5,9.5s9.17,13.5,9.5,22.5v192c-.33,9-3.5,16.5-9.5,22.5s-13.5,9.17-22.5,9.5H32c-9-.33-16.5-3.5-22.5-9.5S.33,233,0,224V32ZM64,224c.33,5,3,7.67,8,8h32c5-.33,7.67-3,8-8-.33-5-3-7.67-8-8h-32c-5,.33-7.67,3-8,8ZM144,32H32h112H32v160h112V32Z"/>
</svg>