<?xml version="1.0" encoding="UTF-8"?>
<svg id="Layer_1" xmlns="http://www.w3.org/2000/svg" viewBox="0 0 203.57 256">
  <defs>
    <style>
      .cls-1 {
        fill: #a785ff;
      }
    </style>
  </defs>
  <path class="cls-1" d="M185.98,116.57l-2-3.5,2,3.5-2-3.5c0-11.33-2.17-19.99-6.5-25.98-4.66-6-10.16-10.66-16.49-13.99h.5c4-.33,6.66-2.5,8-6.5,6-1.67,8.99-4.33,8.99-8h0c1.33-.67,2.83-1.83,4.5-3.5,1.33-1.67,2-3.66,2-6,3.33-2.33,4.66-5.33,4-8.99,3.33-4,4.33-7.33,3-9.99,3-4.66,3.16-8.16.5-10.49h0c1.67-3,1.83-5.5.5-7.5-1.67-2.33-4.5-3.33-8.49-3-2-2-4.16-3.16-6.5-3.5s-4.16-.5-5.5-.5h-.5c-.67-2-3.33-2.67-8-2-3.66-2.67-7.33-3.16-10.99-1.5-3.66-2-6.83-2.17-9.49-.5-.67.33-1.33.67-2,1-4-1-6.66-.67-8,1-.33.33-.83.67-1.5,1-5-.67-8.49.5-10.49,3.5-.33.33-.5.67-.5,1l-3.5-.5c-4.66,3-8.33,6.66-10.99,10.99-2.33,4.33-3.83,8.16-4.5,11.49-1-3.33-2.67-7.16-5-11.49-2.67-4.33-6.33-8-10.99-10.99l-3,.5c-.33-.33-.67-.67-1-1-2-3-5.33-4.16-9.99-3.5-1-.33-1.67-.67-2-1-1.67-1.67-4.33-2-8-1-.67-.33-1.33-.67-2-1-1.67-.67-3.33-1-5-1-1.33,0-2.67.5-4,1.5-4-1.67-7.83-1.17-11.49,1.5-4.66-.67-7.33,0-8,2h-.5c-1.33,0-3.16.17-5.5.5s-4.5,1.5-6.5,3.5c-4-.33-6.83.67-8.49,3-1.33,2-1.17,4.5.5,7.5h0c-2.67,2.33-2.5,5.83.5,10.49-1.33,2.67-.33,6,3,9.99-.67,3.66.67,6.66,4,8.99,0,2.33.67,4.33,2,6,1.67,1.67,3.16,2.83,4.5,3.5h.5c-.33,3.33,2.5,6,8.49,8,1.33,4,4,6.16,8,6.5h.5c-6.33,3.33-11.66,8-15.99,13.99-4.66,6-7,14.66-7,25.98l-2,3.5c-7.66,4.66-13.16,12.66-16.49,23.99-3,11.33.17,22.82,9.49,34.48,1,5.33,2.33,9.99,4,13.99.67,1.33,1.17,2.67,1.5,4,2,10.99,6.33,19.32,12.99,24.99,6.33,5.66,10.99,8.66,13.99,8.99,7.33,6,16.16,10.99,26.48,14.99,10.33,9.66,20.99,14.32,31.98,13.99h.5c11.33.33,21.99-4.33,31.98-13.99,10.33-4,18.99-8.99,25.98-14.99,3.33-.33,8.16-3.33,14.49-8.99,6.66-5.66,10.99-13.99,12.99-24.99.33-1.33.83-2.67,1.5-4,1.67-4,3-8.66,4-13.99,9.33-11.66,12.49-23.15,9.49-34.48-3-11.33-8.49-19.49-16.49-24.49v.5ZM174.99,112.57c-1,2.33-5.33.83-12.99-4.5-7.66-5.33-14.82-11.33-21.49-17.99-6.66-6.66-8.83-10.49-6.5-11.49,11.66-2,21.32,0,28.98,6,8,6.33,11.99,15.66,11.99,27.98ZM153.5,159.04c-6.33,3.66-13.33,4.5-20.99,2.5-7.33-2.33-13.49-7-18.49-13.99-4.66-7.33-6.5-14.82-5.5-22.49.67-7.33,4.16-13.16,10.49-17.49,6.33-4,13.16-4.83,20.49-2.5,7.66,2,13.99,6.66,18.99,13.99,4.66,7.33,6.5,14.66,5.5,21.99-1,7.66-4.5,13.66-10.49,17.99ZM119.52,14.63c.33,2.33.83,3.66,1.5,4,.67-.67,1.33-1.5,2-2.5,1.67-2,3.83-4,6.5-6,0,.33-.17.67-.5,1-.33,1.33.17,2.5,1.5,3.5,2-2.67,4.66-4.83,8-6.5-1,2-1,3.33,0,4,0,.33.17.5.5.5h0c2.33-2.33,5.5-4.33,9.49-6,0,.33-.17.5-.5.5-1.67,1.33-1.83,2.83-.5,4.5,2-1.67,5.83-3.16,11.49-4.5-.33.33-.67.67-1,1-2,1.33-2.5,2.5-1.5,3.5,3.33-1.33,7-2.17,10.99-2.5-2.33,1.67-3,3.16-2,4.5,3.66-1.67,8-2.17,12.99-1.5l-3,3c.67.33,3.16.5,7.5.5h4.5v.5c-2,2-3.5,4.83-4.5,8.49.67.33,2.17.33,4.5,0h.5c-1.33,3-3,5-5,6-1,.67-1.67,1.5-2,2.5,1.33,1,3.16,1,5.5,0-1.33,2.33-3.16,4.5-5.5,6.5-1,.67-1.83,1.33-2.5,2,.33.67,2,.83,5,.5-2.67,2.67-5.83,5.16-9.49,7.5.67.67,2.17,1,4.5,1h.5c-2.67,2.33-5.66,4.16-8.99,5.5-1,.33-2,.83-3,1.5,1.67,1,3.16,1.33,4.5,1h.5c-2.33,1.67-5.5,3.16-9.49,4.5-1,0-1.83.17-2.5.5.67,1.33,1.83,2,3.5,2-3,1.33-6,2-8.99,2-2,0-3.5.33-4.5,1,.67,1.33,1.83,2.33,3.5,3-4.66.33-10.66-.33-17.99-2-7.33-2-12.33-6.83-14.99-14.49,7.33-8.33,22.99-18.66,46.97-30.98-19.32,6-36.31,14.82-50.97,26.48-8-4.33-10.66-10.33-8-17.99,2.33-7.33,6-13.33,10.99-17.99ZM102.53,72.09c6.33,0,12.33,1.83,17.99,5.5,5.33,3.33,8.33,7.33,8.99,11.99-1,8-9.99,12.33-26.98,12.99-8.33,0-14.82-1.5-19.49-4.5-5-3-7.5-6.33-7.5-9.99.33-3.33,3.16-6.83,8.49-10.49,5-3.66,11.16-5.5,18.49-5.5ZM41.07,65.6c1.67-.33,2.83-1,3.5-2-.67-.33-1.33-.5-2-.5-4.33-1-7.83-2.5-10.49-4.5h1c1,.33,2.33,0,4-1-.67-.67-1.5-1.17-2.5-1.5-3.33-1.33-6.33-3.16-8.99-5.5h.5c2,0,3.5-.33,4.5-1-3.66-2.33-6.83-4.83-9.49-7.5,2.67.33,4.33.17,5-.5-1-.67-1.83-1.33-2.5-2-2.33-2-4.16-4.16-5.5-6.5,2,1,3.83,1,5.5,0-.33-1-1.17-1.83-2.5-2.5-1.67-1-3.33-3-5-6h1c2.33.33,3.83.33,4.5,0-1.33-3.66-2.83-6.5-4.5-8.49,0-.33-.17-.5-.5-.5h3c5.33,0,8.33-.17,8.99-.5l-3-3c5-.67,9.49-.17,13.49,1.5,1-1.33.33-2.83-2-4.5,4,.67,7.66,1.5,10.99,2.5.67-1,.17-2.17-1.5-3.5-.33-.33-.67-.67-1-1,5.66,1.33,9.49,2.83,11.49,4.5,1-1.67.67-3.16-1-4.5,0,0-.17-.17-.5-.5,4.33,1.67,7.5,3.66,9.49,6h.5s.17-.17.5-.5c1-.67,1-2,0-4,3.33,1.67,5.83,3.83,7.5,6.5,1.33-1,1.83-2.17,1.5-3.5v-1c2.33,2,4.33,4,6,6,1,1,1.83,1.83,2.5,2.5.33-.33.83-1.67,1.5-4,4.66,4.66,8.33,10.66,10.99,17.99,2.33,7.66-.33,13.66-8,17.99-14.66-11.66-31.65-20.49-50.97-26.48,23.99,12.33,39.48,22.65,46.47,30.98-2.33,7.66-7.33,12.49-14.99,14.49-7.33,1.67-13.16,2.33-17.49,2,1.67-.67,2.83-1.67,3.5-3-1-.67-2.67-1-5-1-3,0-6-.67-8.99-2h.5ZM71.05,77.59c2,1-.33,4.83-7,11.49-6.66,6.66-13.83,12.66-21.49,17.99-7.66,5.66-11.83,7.16-12.49,4.5-.33-12.33,3.5-21.49,11.49-27.48,7.66-6,17.49-8.16,29.48-6.5ZM19.08,171.03c-6.33-5.33-9.49-13.16-9.49-23.49s5.33-18.82,15.99-25.48c4.33-.67,6.5,3.33,6.5,11.99.33,8.66-.83,17.16-3.5,25.48-2.67,8.33-5.83,12.16-9.49,11.49ZM64.56,220c-3.66,2.33-8.83,2.5-15.49.5-6.33-1.67-12.66-6.5-18.99-14.49-3.66-7-5.5-13.49-5.5-19.49,0-5.66,1.5-9.66,4.5-11.99,4-2.33,8.83-2.17,14.49.5,5.66,2.33,10.99,6.5,15.99,12.49,4.33,5.33,7.16,11.33,8.49,17.99,1,6.66-.17,11.49-3.5,14.49ZM51.56,160.54c-6.33-4.33-9.83-10.33-10.49-17.99-1-7.33.83-14.66,5.5-21.99,5-7.33,11.16-11.99,18.49-13.99,7.33-2.33,14.32-1.5,20.99,2.5,6,4,9.49,9.83,10.49,17.49,1,7.66-.83,15.16-5.5,22.49-5.33,7-11.66,11.66-18.99,13.99-7.33,2-14.16,1.17-20.49-2.5ZM102.53,247.99c-7.66,0-14.32-2-19.99-6-5.66-4.33-8.66-7.66-8.99-9.99.33-3.33,3.83-6,10.49-8,6.33-2.33,12.83-3.33,19.49-3,6.33-.33,12.33.5,17.99,2.5,6,1.67,9.16,4,9.49,7,0,3-3,6.66-8.99,10.99-5.66,4-12.16,6.16-19.49,6.5ZM132.02,185.53c-.33,7.66-3.16,13.99-8.49,18.99-5.66,5-12.66,7.66-20.99,8-8.33,0-15.32-2.5-20.99-7.5-5.66-5.33-8.49-11.66-8.49-18.99v-.5c0-7.66,2.83-13.99,8.49-18.99,5.33-5,12.16-7.66,20.49-8,8.66.33,15.66,3,20.99,8,5.66,5,8.66,11.33,8.99,18.99ZM172.99,207.01c-6.66,8.33-13.49,13.33-20.49,14.99-7,1.33-12.16.67-15.49-2-3.33-3.66-4-9.16-2-16.49,1.67-7.33,4.83-13.83,9.49-19.49,5.33-6,10.49-10.33,15.49-12.99,5.33-3,9.99-3,13.99,0,2.67,3,4.33,8.16,5,15.49.33,7.33-1.67,14.16-6,20.49ZM184.48,170.53c-3.66.67-6.83-3.16-9.49-11.49-2.33-8.66-3.5-17.16-3.5-25.48.33-8.66,2.5-12.83,6.5-12.49,10.66,7,15.99,15.66,15.99,25.98s-3.16,18.16-9.49,23.49Z"/>
</svg>